<?xml version="1.0" encoding="utf-8"?>
<!-- Generator: Adobe Illustrator 19.0.1, SVG Export Plug-In . SVG Version: 6.00 Build 0)  -->
<svg version="1.1" id="Calque_1" xmlns="http://www.w3.org/2000/svg" xmlns:xlink="http://www.w3.org/1999/xlink" x="0px" y="0px"
	 viewBox="-204 346.9 186 148" style="enable-background:new -204 346.9 186 148;" xml:space="preserve">
<style type="text/css">
	.st0{fill:#0075A1;}
	.st1{fill:#FFFFFF;}
</style>
<g>
	<path class="st0" d="M-75.9,392.1l-30.3-38.4c-3.1-3.9-8.9-6.6-14.3-6.6c-0.7,0-1.4,0-2,0.1l-48.5,7.1c-5.6,0.8-11.6,5.6-13.7,10.8
		l-18.1,45.5c-2.1,5.3-1,12.9,2.5,17.3l30.3,38.4c3.1,3.9,8.9,6.6,14.3,6.6c0.7,0,1.4,0,2-0.1l48.4-7.1c5.6-0.8,11.7-5.6,13.8-10.9
		l18.1-45.5C-71.3,404.2-72.4,396.5-75.9,392.1z"/>
	<path class="st0" d="M-19.9,451.5l-15.8-20c-1.6-2-4.7-3.5-7.4-3.5c-0.4,0-0.7,0-1.1,0.1l-25.3,3.7c-2.9,0.4-6.1,2.9-7.2,5.7
		l-9.4,23.7c-1.1,2.8-0.5,6.7,1.3,9l15.8,20c1.6,2,4.7,3.5,7.4,3.5c0.4,0,0.7,0,1.1-0.1l25.3-3.7c2.9-0.4,6.1-2.9,7.2-5.7l9.4-23.7
		C-17.5,457.8-18,453.9-19.9,451.5z"/>
	<g>
		<path class="st1" d="M-168.6,376.8c1,0,1.8,0.1,2.4,0.4c0.6,0.3,1.1,0.7,1.5,1.2s0.6,1.1,0.8,1.8c0.2,0.7,0.2,1.4,0.2,2.2v6.3
			c0,0.3-0.1,0.6-0.4,0.8c-0.3,0.2-0.6,0.4-1.1,0.4c-0.4,0-0.8-0.1-1-0.4c-0.3-0.2-0.4-0.5-0.4-0.8v-6.4c0-0.9-0.2-1.6-0.5-2
			c-0.3-0.4-0.9-0.7-1.7-0.7c-1.5,0-2.2,0.9-2.2,2.7v6.5v0.2v0.1v0.1c0,0,0,0.1-0.1,0.1c-0.1,0.2-0.3,0.3-0.5,0.4
			c-0.2,0.1-0.4,0.2-0.7,0.2h-0.1c-0.4,0-0.7-0.1-1-0.3c-0.3-0.2-0.4-0.4-0.5-0.7v-0.1v-6.6c0-1.8-0.7-2.7-2.2-2.7
			c-0.8,0-1.4,0.2-1.8,0.7c-0.3,0.4-0.5,1.1-0.5,2v6.4c0,0.3-0.1,0.6-0.4,0.8c-0.3,0.2-0.6,0.4-1,0.4c-0.5,0-0.8-0.1-1.1-0.4
			c-0.3-0.2-0.4-0.5-0.4-0.8v-6.3c0-0.8,0.1-1.5,0.2-2.2c0.1-0.7,0.4-1.3,0.8-1.8c0.4-0.5,0.9-0.9,1.5-1.2c0.6-0.3,1.4-0.4,2.4-0.4
			s1.8,0.2,2.4,0.5c0.6,0.4,1.1,0.8,1.5,1.4c0.4-0.6,0.9-1.1,1.5-1.4C-170.4,377-169.6,376.8-168.6,376.8z"/>
		<path class="st1" d="M-159.9,375.6c0-0.3,0.1-0.6,0.4-0.8c0.3-0.2,0.6-0.4,1.1-0.4c0.4,0,0.8,0.1,1,0.4c0.3,0.2,0.4,0.5,0.4,0.8
			v0.6c0,0.3-0.1,0.6-0.4,0.8c-0.3,0.2-0.6,0.4-1,0.4c-0.5,0-0.8-0.1-1.1-0.4c-0.3-0.2-0.4-0.5-0.4-0.8V375.6z M-159.9,380.1
			c0-0.3,0.1-0.6,0.4-0.8c0.3-0.2,0.6-0.4,1.1-0.4c0.4,0,0.8,0.1,1,0.4c0.3,0.2,0.4,0.5,0.4,0.8v8.6c0,0.3-0.1,0.6-0.4,0.8
			c-0.3,0.2-0.6,0.4-1,0.4c-0.5,0-0.8-0.1-1.1-0.4c-0.3-0.2-0.4-0.5-0.4-0.8V380.1z"/>
		<path class="st1" d="M-153.6,388c-0.1-0.1-0.1-0.2-0.1-0.4s0-0.3,0-0.5c0-0.1,0.1-0.3,0.2-0.4s0.2-0.2,0.4-0.3
			c0.2-0.1,0.4-0.2,0.6-0.2c0.2,0,0.3,0,0.5,0.1c0.1,0.1,0.3,0.1,0.4,0.2c0.1,0.1,0.2,0.2,0.4,0.3c0.5,0.4,1.2,0.6,2.3,0.6
			c0.5,0,1-0.1,1.3-0.4c0.3-0.2,0.5-0.5,0.5-0.9s-0.2-0.7-0.5-0.9c-0.3-0.2-0.7-0.4-1.1-0.6c-0.5-0.2-1-0.3-1.5-0.5
			c-0.5-0.2-1-0.4-1.5-0.7c-0.5-0.3-0.8-0.6-1.1-1.1c-0.3-0.4-0.5-1-0.5-1.8c0-1.2,0.4-2.1,1.2-2.8c0.8-0.7,1.9-1.1,3.4-1.1
			c0.6,0,1.2,0.1,1.6,0.2c0.5,0.1,0.9,0.2,1.2,0.4c0.3,0.1,0.6,0.3,0.7,0.5c0.2,0.2,0.3,0.3,0.4,0.5c0.1,0.2,0.2,0.5,0.1,0.8
			c0,0.3-0.2,0.5-0.4,0.7c-0.3,0.2-0.6,0.3-0.9,0.2c-0.3-0.1-0.5-0.2-0.8-0.3c-0.1-0.1-0.3-0.2-0.6-0.3c-0.3-0.1-0.7-0.2-1.3-0.2
			c-0.5,0-0.9,0.1-1.2,0.4c-0.3,0.3-0.4,0.6-0.4,1c0,0.3,0.1,0.6,0.4,0.7c0.3,0.2,0.7,0.3,1.1,0.5c0.4,0.1,0.9,0.3,1.4,0.5
			c0.5,0.2,1,0.4,1.4,0.7c0.4,0.3,0.8,0.7,1.1,1.2c0.3,0.5,0.4,1.1,0.4,1.9c0,1.2-0.4,2.1-1.2,2.8c-0.8,0.7-1.9,1-3.4,1
			c-0.5,0-1,0-1.5-0.1s-0.9-0.2-1.3-0.4c-0.4-0.2-0.8-0.4-1.1-0.6C-153.2,388.5-153.5,388.3-153.6,388z"/>
		<path class="st1" d="M-141.8,388c0-0.1-0.1-0.2-0.1-0.4s0-0.3,0-0.5c0-0.1,0.1-0.3,0.2-0.4c0.1-0.1,0.2-0.2,0.4-0.3
			c0.2-0.1,0.4-0.2,0.6-0.2s0.3,0,0.5,0.1c0.1,0.1,0.3,0.1,0.4,0.2c0.1,0.1,0.2,0.2,0.4,0.3c0.5,0.4,1.2,0.6,2.3,0.6
			c0.5,0,1-0.1,1.3-0.4c0.3-0.2,0.5-0.5,0.5-0.9s-0.2-0.7-0.5-0.9c-0.3-0.2-0.7-0.4-1.1-0.6c-0.5-0.2-0.9-0.3-1.5-0.5
			c-0.5-0.2-1-0.4-1.5-0.7c-0.5-0.3-0.8-0.6-1.1-1.1c-0.3-0.4-0.5-1-0.5-1.8c0-1.2,0.4-2.1,1.2-2.8c0.8-0.7,1.9-1.1,3.4-1.1
			c0.6,0,1.2,0.1,1.7,0.2c0.5,0.1,0.9,0.2,1.2,0.4c0.3,0.1,0.6,0.3,0.7,0.5c0.2,0.2,0.3,0.3,0.4,0.5c0.1,0.2,0.2,0.5,0.1,0.8
			c0,0.3-0.2,0.5-0.4,0.7c-0.3,0.2-0.6,0.3-0.9,0.2c-0.3-0.1-0.5-0.2-0.8-0.3c-0.1-0.1-0.3-0.2-0.6-0.3c-0.3-0.1-0.7-0.2-1.3-0.2
			c-0.5,0-0.9,0.1-1.2,0.4c-0.3,0.3-0.4,0.6-0.4,1c0,0.3,0.1,0.6,0.4,0.7c0.3,0.2,0.7,0.3,1.1,0.5c0.4,0.1,0.9,0.3,1.4,0.5
			c0.5,0.2,1,0.4,1.4,0.7c0.4,0.3,0.8,0.7,1.1,1.2c0.3,0.5,0.4,1.1,0.4,1.9c0,1.2-0.4,2.1-1.2,2.8c-0.8,0.7-1.9,1-3.4,1
			c-0.5,0-1,0-1.5-0.1s-0.9-0.2-1.4-0.4c-0.4-0.2-0.8-0.4-1.1-0.6C-141.4,388.5-141.6,388.3-141.8,388z"/>
		<path class="st1" d="M-129.3,375.6c0-0.3,0.1-0.6,0.4-0.8c0.3-0.2,0.6-0.4,1.1-0.4c0.4,0,0.8,0.1,1,0.4c0.3,0.2,0.4,0.5,0.4,0.8
			v0.6c0,0.3-0.1,0.6-0.4,0.8c-0.3,0.2-0.6,0.4-1,0.4c-0.5,0-0.8-0.1-1.1-0.4c-0.3-0.2-0.4-0.5-0.4-0.8V375.6z M-129.3,380.1
			c0-0.3,0.1-0.6,0.4-0.8c0.3-0.2,0.6-0.4,1.1-0.4c0.4,0,0.8,0.1,1,0.4c0.3,0.2,0.4,0.5,0.4,0.8v8.6c0,0.3-0.1,0.6-0.4,0.8
			c-0.3,0.2-0.6,0.4-1,0.4c-0.5,0-0.8-0.1-1.1-0.4c-0.3-0.2-0.4-0.5-0.4-0.8V380.1z"/>
		<path class="st1" d="M-123,382.5c0-0.8,0.1-1.5,0.3-2.2c0.2-0.7,0.6-1.3,1-1.8c0.5-0.5,1-0.9,1.8-1.2c0.7-0.3,1.6-0.5,2.6-0.5
			s1.8,0.2,2.5,0.5c0.7,0.3,1.3,0.7,1.8,1.2s0.8,1.1,1,1.8c0.2,0.7,0.3,1.4,0.3,2.2v1.7c0,0.8-0.1,1.5-0.3,2.1
			c-0.2,0.7-0.6,1.3-1,1.8c-0.5,0.5-1.1,0.9-1.8,1.2c-0.7,0.3-1.6,0.4-2.5,0.4c-1,0-1.8-0.1-2.6-0.4c-0.7-0.3-1.3-0.7-1.8-1.2
			s-0.8-1.1-1-1.8c-0.2-0.7-0.3-1.4-0.3-2.1V382.5z M-120.1,384.3c0,0.9,0.2,1.6,0.7,2.1s1.2,0.8,2,0.8c0.9,0,1.5-0.3,2-0.8
			s0.7-1.2,0.7-2.1v-1.8c0-1-0.2-1.8-0.7-2.3s-1.2-0.8-2-0.8s-1.5,0.3-2,0.8s-0.7,1.3-0.7,2.3V384.3z"/>
		<path class="st1" d="M-103,376.8c0.9,0,1.7,0.1,2.4,0.4c0.7,0.3,1.3,0.6,1.7,1.1c0.5,0.5,0.8,1,1.1,1.7c0.2,0.6,0.4,1.4,0.4,2.2
			v6.6c0,0.3-0.1,0.6-0.4,0.8s-0.6,0.4-1.1,0.4c-0.4,0-0.8-0.1-1.1-0.4c-0.3-0.2-0.4-0.5-0.4-0.8v-6.4c0-0.9-0.2-1.6-0.7-2
			c-0.5-0.4-1.1-0.7-1.9-0.7s-1.4,0.2-1.9,0.7c-0.5,0.4-0.8,1.1-0.8,2v6.4c0,0.3-0.1,0.6-0.4,0.8s-0.6,0.4-1,0.4s-0.8-0.1-1.1-0.4
			c-0.3-0.2-0.4-0.5-0.4-0.8v-6.3c0-0.8,0.1-1.5,0.4-2.2c0.2-0.7,0.6-1.3,1.1-1.8s1-0.9,1.7-1.2C-104.7,376.9-103.9,376.8-103,376.8
			z"/>
	</g>
	<path class="st1" d="M-174,396.9c0-0.3,0.1-0.6,0.4-0.8c0.3-0.2,0.6-0.4,1.1-0.4c0.4,0,0.8,0.1,1,0.4c0.3,0.2,0.4,0.5,0.4,0.8v15
		c0,0.3-0.1,0.6-0.4,0.8s-0.6,0.4-1,0.4c-0.5,0-0.8-0.1-1.1-0.4c-0.3-0.3-0.4-0.5-0.4-0.8V396.9z"/>
	<path class="st1" d="M-157.9,413.2c-0.4,0-0.8-0.1-1-0.4c-0.3-0.2-0.4-0.5-0.4-0.8v-0.4l-0.2-0.1c-0.2,0.2-0.3,0.4-0.5,0.6
		c-0.2,0.2-0.4,0.3-0.6,0.5c-0.3,0.1-0.5,0.2-0.9,0.3c-0.3,0.1-0.8,0.1-1.3,0.1c-0.8,0-1.5-0.1-2.1-0.4c-0.6-0.3-1.1-0.7-1.5-1.1
		c-0.4-0.5-0.7-1-0.9-1.6c-0.2-0.6-0.3-1.2-0.3-1.9v-2.2c0-0.7,0.1-1.4,0.4-2.1c0.3-0.7,0.6-1.3,1.1-1.9s1.1-1,1.8-1.3
		c0.7-0.3,1.6-0.5,2.6-0.5c0.9,0,1.7,0.1,2.4,0.4c0.7,0.3,1.2,0.6,1.6,1c0.4,0.4,0.7,1,0.9,1.6c0.2,0.6,0.3,1.3,0.3,2v7
		c0,0.3-0.1,0.6-0.4,0.8C-157.1,413-157.4,413.2-157.9,413.2z M-159.3,405c0-0.8-0.2-1.4-0.6-1.8c-0.4-0.3-1-0.5-1.7-0.5
		c-0.4,0-0.8,0.1-1.2,0.2c-0.4,0.2-0.7,0.4-0.9,0.6c-0.3,0.3-0.4,0.6-0.6,0.9c-0.1,0.4-0.2,0.7-0.2,1.1v2.4c0,0.6,0.2,1.1,0.7,1.6
		c0.5,0.4,1,0.7,1.7,0.7c0.4,0,0.7-0.1,1.1-0.2c0.3-0.1,0.6-0.3,0.9-0.6c0.3-0.2,0.5-0.5,0.7-0.9c0.2-0.4,0.3-0.8,0.3-1.3V405
		H-159.3z"/>
	<path class="st1" d="M-155,398.6c0-0.3,0.1-0.6,0.4-0.9c0.3-0.3,0.7-0.4,1.2-0.4s0.8,0.1,1.1,0.4c0.3,0.3,0.4,0.5,0.4,0.9v0.6
		c0,0.3-0.1,0.6-0.4,0.9c-0.3,0.2-0.7,0.4-1.1,0.4c-0.5,0-0.9-0.1-1.2-0.4c-0.3-0.3-0.4-0.5-0.4-0.9V398.6z M-152.7,403.1
		c0-0.3,0.1-0.6,0.4-0.8c0.3-0.2,0.6-0.4,1.1-0.4c0.4,0,0.8,0.1,1,0.4c0.3,0.2,0.4,0.5,0.4,0.8v8.8c0,0.3-0.1,0.6-0.4,0.8
		s-0.6,0.4-1,0.4c-0.5,0-0.8-0.1-1.1-0.4c-0.3-0.2-0.4-0.5-0.4-0.8V403.1z M-150.7,398.6c0-0.3,0.1-0.6,0.4-0.9s0.7-0.4,1.2-0.4
		c0.4,0,0.8,0.1,1.1,0.4c0.3,0.3,0.4,0.5,0.4,0.9v0.6c0,0.3-0.1,0.6-0.4,0.9c-0.3,0.2-0.7,0.4-1.1,0.4c-0.5,0-0.9-0.1-1.2-0.4
		c-0.3-0.3-0.4-0.5-0.4-0.9V398.6z"/>
	<path class="st1" d="M-126.5,413c-0.9,0-1.7-0.1-2.4-0.4c-0.7-0.3-1.3-0.7-1.7-1.1c-0.5-0.5-0.8-1.1-1.1-1.8
		c-0.2-0.7-0.4-1.4-0.4-2.2v-6.3c0-0.3,0.1-0.6,0.4-0.8c0.3-0.2,0.6-0.4,1.1-0.4c0.4,0,0.8,0.1,1,0.4c0.3,0.2,0.4,0.5,0.4,0.8v6.4
		c0,0.9,0.2,1.6,0.8,2c0.5,0.4,1.1,0.7,1.9,0.7s1.4-0.2,1.9-0.7c0.5-0.4,0.7-1.1,0.7-2v-6.4c0-0.3,0.1-0.6,0.4-0.8
		c0.3-0.2,0.6-0.4,1.1-0.4c0.4,0,0.8,0.1,1.1,0.4c0.3,0.2,0.4,0.5,0.4,0.8v6.3c0,0.8-0.1,1.5-0.4,2.2c-0.2,0.7-0.6,1.3-1.1,1.8
		s-1.1,0.9-1.7,1.1C-124.8,412.9-125.6,413-126.5,413z"/>
	<path class="st1" d="M-107.1,405.1c0,0.8-0.1,1.3-0.5,1.7c-0.3,0.3-0.8,0.5-1.5,0.5h-5.9v0.6c0,0.8,0.2,1.4,0.7,1.9
		s1.2,0.7,2.1,0.7c0.5,0,0.9,0,1.2-0.1c0.4-0.1,0.7-0.1,0.9-0.2c0.2-0.1,0.5-0.2,0.7-0.4c0.2-0.1,0.4-0.2,0.6-0.2
		c0.3,0,0.6,0.1,0.8,0.3c0.2,0.2,0.3,0.5,0.3,0.8s-0.1,0.5-0.4,0.8c-0.2,0.3-0.5,0.5-1,0.7c-0.4,0.2-0.9,0.4-1.4,0.5
		s-1.1,0.2-1.7,0.2c-0.9,0-1.6-0.1-2.3-0.4c-0.7-0.3-1.3-0.6-1.8-1.1s-0.9-1-1.2-1.6c-0.3-0.6-0.4-1.3-0.4-1.9v-2.7
		c0-0.7,0.1-1.4,0.4-2.1c0.3-0.7,0.7-1.2,1.1-1.7c0.5-0.5,1.1-0.9,1.7-1.2c0.7-0.3,1.4-0.4,2.2-0.4c1,0,1.8,0.2,2.4,0.5
		c0.7,0.3,1.2,0.7,1.6,1.2s0.7,1,0.9,1.6C-107.2,403.9-107.1,404.5-107.1,405.1z M-112.4,402.4c-0.7,0-1.3,0.2-1.8,0.7
		c-0.4,0.5-0.7,1.1-0.8,1.9h5.1v-0.4c0-0.7-0.2-1.2-0.7-1.6C-111.1,402.6-111.7,402.4-112.4,402.4z"/>
	<g>
		<path class="st1" d="M-175.6,424.6c-0.4,0-0.7,0-1,0.1c-0.3,0.1-0.6,0.1-0.8,0.3c-0.2,0.1-0.4,0.4-0.5,0.6
			c-0.1,0.3-0.1,0.7-0.1,1.1v7c0,0.3-0.1,0.6-0.4,0.8c-0.3,0.2-0.6,0.4-1,0.4c-0.5,0-0.8-0.1-1.1-0.4c-0.3-0.2-0.4-0.5-0.4-0.8v-6.9
			c0-1.6,0.4-2.8,1.3-3.7c0.9-0.9,2.2-1.3,4.1-1.3c0.9,0,1.5,0.2,1.9,0.5c0.4,0.3,0.6,0.8,0.5,1.4c0,0.3-0.2,0.5-0.3,0.6
			c-0.2,0.1-0.4,0.2-0.6,0.2s-0.5,0-0.8,0C-175.1,424.6-175.4,424.6-175.6,424.6z"/>
		<path class="st1" d="M-182.2,417.6c-0.4-0.3-1.1-0.5-1.9-0.5c-1.9,0-3.2,0.4-4.1,1.3c-0.9,0.9-1.3,2.1-1.3,3.7v11.6
			c0,0.3,0.1,0.6,0.4,0.8c0.3,0.2,0.6,0.4,1.1,0.4c0.4,0,0.8-0.1,1-0.4c0.3-0.2,0.4-0.5,0.4-0.8v-7.6l0,0h2.1c0.3,0,0.6-0.1,0.8-0.4
			c0.2-0.3,0.4-0.6,0.4-1c0-0.5-0.1-0.8-0.4-1.1c-0.2-0.3-0.5-0.4-0.8-0.4h-2.1l0,0V422c0-0.4,0.1-0.8,0.2-1.1
			c0.1-0.3,0.3-0.5,0.5-0.7c0.2-0.2,0.5-0.2,0.8-0.3c0.3,0,0.6-0.1,1-0.1c0.2,0,0.5,0,0.8,0s0.5,0,0.7,0c0.2,0,0.4-0.1,0.6-0.2
			c0.2-0.1,0.3-0.3,0.3-0.6C-181.6,418.4-181.7,417.9-182.2,417.6z"/>
		<path class="st1" d="M-162,435c-0.4,0-0.8-0.1-1-0.4c-0.3-0.2-0.4-0.5-0.4-0.8v-0.4l-0.2-0.1c-0.1,0.2-0.3,0.4-0.5,0.6
			c-0.2,0.2-0.4,0.3-0.6,0.5c-0.3,0.1-0.5,0.2-0.9,0.3c-0.3,0.1-0.8,0.1-1.3,0.1c-0.8,0-1.5-0.1-2.1-0.4c-0.6-0.3-1.1-0.7-1.5-1.1
			c-0.4-0.5-0.7-1-0.9-1.6c-0.2-0.6-0.3-1.2-0.3-1.9v-2.2c0-0.7,0.1-1.4,0.4-2.1c0.2-0.7,0.6-1.3,1.1-1.9s1.1-1,1.8-1.3
			c0.7-0.3,1.6-0.5,2.6-0.5c0.9,0,1.7,0.1,2.4,0.4c0.7,0.3,1.2,0.6,1.6,1c0.4,0.4,0.7,1,0.9,1.6c0.2,0.6,0.3,1.3,0.3,2v7
			c0,0.3-0.1,0.6-0.4,0.8C-161.1,434.9-161.5,435-162,435z M-163.4,426.9c0-0.8-0.2-1.4-0.6-1.8c-0.4-0.3-1-0.5-1.7-0.5
			c-0.4,0-0.8,0.1-1.2,0.2c-0.4,0.2-0.7,0.4-0.9,0.6c-0.3,0.3-0.4,0.6-0.6,0.9c-0.1,0.4-0.2,0.7-0.2,1.1v2.4c0,0.6,0.2,1.1,0.7,1.6
			c0.5,0.4,1,0.7,1.7,0.7c0.4,0,0.7-0.1,1.1-0.2c0.3-0.1,0.6-0.3,0.9-0.6c0.3-0.2,0.5-0.5,0.7-0.9c0.2-0.4,0.3-0.8,0.3-1.3v-2.2
			H-163.4z"/>
		<path class="st1" d="M-151.3,421.9c0.9,0,1.7,0.1,2.4,0.4c0.7,0.3,1.3,0.6,1.7,1.1c0.5,0.5,0.8,1,1.1,1.7c0.2,0.6,0.3,1.4,0.3,2.2
			v6.6c0,0.3-0.1,0.6-0.4,0.8c-0.3,0.2-0.6,0.4-1.1,0.4c-0.4,0-0.8-0.1-1.1-0.4c-0.3-0.2-0.4-0.5-0.4-0.8v-6.4c0-0.9-0.2-1.6-0.7-2
			s-1.1-0.6-1.9-0.6c-0.8,0-1.4,0.2-1.9,0.6s-0.8,1.1-0.8,2v6.4c0,0.3-0.1,0.6-0.4,0.8c-0.3,0.2-0.6,0.4-1,0.4
			c-0.5,0-0.8-0.1-1.1-0.4c-0.3-0.2-0.4-0.5-0.4-0.8v-6.3c0-0.8,0.1-1.5,0.4-2.2c0.2-0.7,0.6-1.3,1.1-1.8s1-0.9,1.7-1.2
			C-153,422-152.2,421.9-151.3,421.9z"/>
		<path class="st1" d="M-142.6,427.3c0-0.8,0.1-1.5,0.3-2.1c0.2-0.7,0.5-1.2,1-1.7s1-0.9,1.7-1.2c0.7-0.3,1.5-0.4,2.5-0.4
			c0.9,0,1.6,0.1,2.2,0.3c0.6,0.2,1.1,0.5,1.5,0.9c0.2,0.2,0.3,0.5,0.4,0.8c0,0.3-0.1,0.6-0.2,0.9c-0.2,0.2-0.4,0.4-0.7,0.5
			c-0.3,0.1-0.7,0-1.2-0.2c-0.2-0.1-0.5-0.3-0.8-0.4c-0.3-0.1-0.7-0.2-1.1-0.2c-0.9,0-1.5,0.3-2,0.8c-0.4,0.5-0.7,1.2-0.7,2.1v1.8
			c0,0.9,0.2,1.6,0.7,2.1c0.4,0.5,1.1,0.8,2,0.8c0.4,0,0.8,0,1.2-0.1c0.4-0.1,0.6-0.2,0.8-0.3c0.3-0.2,0.7-0.2,1-0.2
			c0.3,0.1,0.6,0.2,0.7,0.4c0.2,0.2,0.3,0.5,0.3,0.8c0,0.3-0.1,0.6-0.3,0.9c-0.2,0.3-0.6,0.6-1,0.8c-0.5,0.2-1,0.3-1.5,0.4
			c0.2,0.3,0.3,0.6,0.4,0.9c0.1,0.3,0.1,0.6,0.1,1c0,0.5-0.2,0.9-0.5,1.2c-0.3,0.3-0.7,0.6-1.1,0.7c-0.4,0.2-0.9,0.2-1.5,0.2
			c-0.5,0-1-0.2-1.5-0.5c-0.2-0.2-0.4-0.3-0.4-0.6c-0.1-0.2,0-0.4,0-0.6c0.1-0.2,0.2-0.3,0.4-0.4s0.4-0.1,0.7,0
			c0.2,0.1,0.4,0.2,0.6,0.2c0.2,0.1,0.4,0.1,0.6,0.1s0.3-0.1,0.4-0.1c0.1-0.1,0.2-0.2,0.3-0.4c0.1-0.2,0.1-0.5,0-0.7
			c0-0.2-0.1-0.5-0.3-0.9c-0.9,0-1.6-0.2-2.3-0.5c-0.6-0.3-1.2-0.7-1.6-1.2s-0.7-1-0.9-1.7c-0.2-0.6-0.3-1.3-0.3-2L-142.6,427.3
			L-142.6,427.3z"/>
		<path class="st1" d="M-121.1,435c-0.4,0-0.8-0.1-1-0.4c-0.3-0.2-0.4-0.5-0.4-0.8v-0.4l-0.2-0.1c-0.1,0.2-0.3,0.4-0.5,0.6
			c-0.2,0.2-0.4,0.3-0.6,0.5c-0.3,0.1-0.5,0.2-0.9,0.3c-0.3,0.1-0.8,0.2-1.3,0.2c-0.8,0-1.5-0.1-2.1-0.4c-0.6-0.3-1.1-0.7-1.5-1.1
			c-0.4-0.5-0.7-1-0.9-1.6c-0.2-0.6-0.3-1.2-0.3-1.9v-2.2c0-0.7,0.1-1.4,0.4-2.1c0.3-0.7,0.6-1.3,1.1-1.9s1.1-1,1.8-1.3
			c0.7-0.3,1.6-0.5,2.6-0.5c0.9,0,1.7,0.1,2.4,0.4c0.7,0.3,1.2,0.6,1.6,1s0.7,1,0.9,1.6c0.2,0.6,0.3,1.3,0.3,2v7
			c0,0.3-0.1,0.6-0.4,0.8C-120.2,434.9-120.6,435-121.1,435z M-122.5,426.9c0-0.8-0.2-1.4-0.6-1.8c-0.4-0.3-1-0.5-1.7-0.5
			c-0.4,0-0.8,0.1-1.2,0.2c-0.3,0.2-0.7,0.4-0.9,0.6c-0.3,0.3-0.4,0.6-0.6,0.9c-0.1,0.4-0.2,0.7-0.2,1.1v2.4c0,0.6,0.2,1.1,0.7,1.6
			c0.5,0.4,1,0.7,1.7,0.7c0.4,0,0.7-0.1,1.1-0.2c0.3-0.1,0.6-0.3,0.9-0.6c0.3-0.2,0.5-0.5,0.7-0.9c0.2-0.4,0.2-0.8,0.2-1.3
			L-122.5,426.9L-122.5,426.9z"/>
		<path class="st1" d="M-115.7,420.6c0-0.3,0.1-0.6,0.4-0.8c0.3-0.2,0.6-0.4,1.1-0.4c0.4,0,0.8,0.1,1,0.4c0.3,0.2,0.4,0.5,0.4,0.8
			v0.6c0,0.3-0.1,0.6-0.4,0.8c-0.3,0.2-0.6,0.4-1,0.4s-0.8-0.1-1.1-0.4c-0.3-0.2-0.4-0.5-0.4-0.8V420.6z M-115.7,425.1
			c0-0.3,0.1-0.6,0.4-0.8c0.3-0.2,0.6-0.4,1.1-0.4c0.4,0,0.8,0.1,1,0.4c0.3,0.2,0.4,0.5,0.4,0.8v8.6c0,0.3-0.1,0.6-0.4,0.8
			c-0.3,0.2-0.6,0.4-1,0.4s-0.8-0.1-1.1-0.4c-0.3-0.2-0.4-0.5-0.4-0.8V425.1z"/>
		<path class="st1" d="M-109.4,433.1c-0.1-0.1-0.1-0.2-0.1-0.4s0-0.3,0-0.5c0-0.2,0.1-0.3,0.2-0.4c0.1-0.1,0.2-0.2,0.4-0.3
			c0.2-0.1,0.4-0.2,0.6-0.2s0.3,0,0.5,0.1c0.1,0.1,0.3,0.1,0.4,0.2s0.2,0.2,0.4,0.3c0.5,0.4,1.2,0.6,2.3,0.6c0.5,0,1-0.1,1.3-0.4
			c0.3-0.2,0.5-0.5,0.5-0.9c0-0.4-0.1-0.7-0.4-0.9c-0.3-0.2-0.7-0.4-1.1-0.6c-0.5-0.2-1-0.3-1.5-0.5c-0.5-0.2-1-0.4-1.5-0.7
			s-0.8-0.6-1.1-1.1c-0.3-0.4-0.5-1-0.5-1.8c0-1.2,0.4-2.1,1.2-2.8c0.8-0.7,1.9-1.1,3.4-1.1c0.6,0,1.2,0.1,1.7,0.2s0.9,0.2,1.2,0.4
			c0.3,0.2,0.6,0.3,0.7,0.5c0.2,0.2,0.3,0.3,0.4,0.5c0.1,0.2,0.2,0.5,0.1,0.8c0,0.3-0.2,0.5-0.4,0.7c-0.3,0.2-0.6,0.3-0.9,0.2
			s-0.5-0.2-0.8-0.3c-0.1-0.1-0.3-0.2-0.6-0.3c-0.3-0.1-0.7-0.2-1.3-0.2c-0.5,0-0.9,0.1-1.2,0.4c-0.3,0.3-0.4,0.6-0.4,1
			c0,0.3,0.1,0.6,0.4,0.7c0.3,0.2,0.7,0.3,1.1,0.5c0.4,0.1,0.9,0.3,1.4,0.5c0.5,0.2,1,0.4,1.4,0.7c0.4,0.3,0.8,0.7,1.1,1.2
			c0.3,0.5,0.4,1.1,0.4,1.9c0,1.2-0.4,2.1-1.2,2.8c-0.8,0.7-1.9,1-3.4,1c-0.5,0-1,0-1.5-0.1s-0.9-0.2-1.4-0.4
			c-0.4-0.2-0.8-0.4-1.1-0.6C-109,433.6-109.2,433.3-109.4,433.1z"/>
		<path class="st1" d="M-86.8,427c0,0.8-0.1,1.3-0.5,1.7c-0.3,0.3-0.8,0.5-1.5,0.5h-5.9v0.7c0,0.8,0.2,1.4,0.7,1.9s1.2,0.7,2.1,0.7
			c0.5,0,0.9,0,1.2-0.1c0.4-0.1,0.7-0.1,0.9-0.2c0.2-0.1,0.5-0.2,0.7-0.4c0.2-0.1,0.4-0.2,0.6-0.2c0.3,0,0.6,0.1,0.8,0.3
			c0.2,0.2,0.3,0.5,0.3,0.8c0,0.3-0.1,0.5-0.4,0.8c-0.2,0.3-0.6,0.5-1,0.7c-0.4,0.2-0.9,0.4-1.4,0.5s-1.1,0.2-1.7,0.2
			c-0.9,0-1.6-0.1-2.3-0.4c-0.7-0.3-1.3-0.6-1.8-1.1s-0.9-1-1.2-1.6c-0.3-0.6-0.4-1.3-0.4-1.9v-2.7c0-0.7,0.1-1.4,0.4-2.1
			c0.3-0.7,0.7-1.2,1.1-1.7c0.5-0.5,1.1-0.9,1.7-1.2c0.7-0.3,1.4-0.4,2.2-0.4c1,0,1.8,0.2,2.4,0.5c0.7,0.3,1.2,0.7,1.6,1.2
			s0.7,1,0.9,1.6C-86.9,425.8-86.8,426.4-86.8,427z M-92.2,424.3c-0.8,0-1.3,0.2-1.8,0.7c-0.4,0.5-0.7,1.1-0.8,1.9h5.1v-0.4
			c0-0.7-0.2-1.2-0.7-1.6C-90.8,424.5-91.4,424.3-92.2,424.3z"/>
	</g>
	<path class="st1" d="M-135,410.7c-0.3-0.3-0.6-0.4-0.9-0.5c0.1-0.2,0.2-0.4,0.3-0.7c0.2-0.7,0.3-1.4,0.3-2.1v-1.7
		c0-0.8-0.1-1.5-0.3-2.2c-0.2-0.7-0.6-1.3-1-1.8c-0.5-0.5-1.1-0.9-1.8-1.2c-0.7-0.3-1.6-0.5-2.5-0.5c-1,0-1.8,0.2-2.6,0.5
		c-0.7,0.3-1.3,0.7-1.8,1.2s-0.8,1.1-1,1.8c-0.2,0.7-0.3,1.4-0.3,2.2v1.7c0,0.8,0.1,1.5,0.3,2.1c0.2,0.7,0.6,1.3,1,1.8
		c0.5,0.5,1,0.9,1.8,1.2c0.7,0.3,1.6,0.4,2.6,0.4s1.8-0.1,2.5-0.4c0.3-0.1,0.5-0.2,0.7-0.4c0.1,0.3,0.3,0.6,0.6,0.9
		c0.3,0.3,0.7,0.4,1.1,0.5c0.4,0,0.7-0.1,0.9-0.3l0.4-0.5c0.2-0.2,0.3-0.5,0.2-0.9C-134.5,411.3-134.7,411-135,410.7z M-138.2,407.4
		c0,0.9-0.2,1.6-0.7,2.1s-1.2,0.8-2,0.8c-0.9,0-1.5-0.3-2-0.8s-0.7-1.2-0.7-2.1v-1.8c0-1,0.2-1.8,0.7-2.3s1.2-0.8,2-0.8
		c0.9,0,1.5,0.3,2,0.8s0.7,1.3,0.7,2.3V407.4z"/>
</g>
</svg>
