<?xml version="1.0" encoding="utf-8"?>
<!-- Generator: Adobe Illustrator 19.0.1, SVG Export Plug-In . SVG Version: 6.00 Build 0)  -->
<svg version="1.1" id="Calque_1" xmlns="http://www.w3.org/2000/svg" xmlns:xlink="http://www.w3.org/1999/xlink" x="0px" y="0px"
	 viewBox="0 0 157.9 15.3" style="enable-background:new 0 0 157.9 15.3;" xml:space="preserve">
<style type="text/css">
	.st0{clip-path:url(#SVGID_2_);fill:#0074A2;}
</style>
<g>
	<defs>
		<rect id="SVGID_1_" y="0" width="157.9" height="15.3"/>
	</defs>
	<clipPath id="SVGID_2_">
		<use xlink:href="#SVGID_1_"  style="overflow:visible;"/>
	</clipPath>
	<path class="st0" d="M4.3,6.9c-0.3,0-0.6,0-0.8,0.1C3.3,7,3.1,7.1,2.9,7.2C2.7,7.3,2.6,7.5,2.5,7.7C2.4,7.9,2.4,8.2,2.4,8.6v5.7
		c0,0.2-0.1,0.5-0.3,0.7c-0.2,0.2-0.5,0.3-0.8,0.3c-0.4,0-0.7-0.1-0.9-0.3C0.1,14.7,0,14.5,0,14.3V8.7c0-1.3,0.3-2.3,1-3
		c0.7-0.7,1.8-1,3.3-1c0.7,0,1.2,0.1,1.6,0.4c0.4,0.3,0.5,0.7,0.4,1.1c0,0.2-0.1,0.4-0.3,0.5C5.9,6.8,5.8,6.9,5.6,6.9
		c-0.2,0-0.4,0-0.6,0C4.7,6.9,4.5,6.9,4.3,6.9"/>
	<path class="st0" d="M12.2,3.2c-0.2,0.1-0.3,0.1-0.6-0.1c-0.2-0.1-0.4-0.3-0.5-0.5C11,2.4,11,2.2,11.1,2s0.2-0.3,0.3-0.4l2.9-1.5
		c0.3-0.1,0.5-0.1,0.8,0c0.2,0.1,0.4,0.3,0.5,0.6c0.1,0.2,0.1,0.5,0.1,0.8c0,0.3-0.2,0.5-0.5,0.6L12.2,3.2z M12.1,6.6
		c-0.6,0-1.1,0.2-1.5,0.6c-0.4,0.4-0.6,0.9-0.6,1.5h4.1V8.4c0-0.6-0.2-1-0.6-1.3C13.2,6.8,12.7,6.6,12.1,6.6 M16.4,8.8
		c0,0.6-0.1,1.1-0.4,1.3c-0.2,0.3-0.6,0.4-1.2,0.4H10V11c0,0.6,0.2,1.2,0.6,1.6c0.4,0.4,1,0.6,1.7,0.6c0.4,0,0.7,0,1-0.1
		c0.3,0,0.5-0.1,0.7-0.2c0.2-0.1,0.4-0.2,0.5-0.3c0.2-0.1,0.3-0.1,0.5-0.1c0.3,0,0.5,0.1,0.6,0.2c0.1,0.2,0.2,0.4,0.2,0.6
		c0,0.2-0.1,0.4-0.3,0.7c-0.2,0.2-0.4,0.4-0.8,0.6c-0.3,0.2-0.7,0.3-1.1,0.4c-0.4,0.1-0.9,0.2-1.4,0.2c-0.7,0-1.3-0.1-1.9-0.3
		C9.9,14.7,9.4,14.4,9,14c-0.4-0.4-0.7-0.8-1-1.3c-0.2-0.5-0.3-1-0.3-1.6V9c0-0.6,0.1-1.2,0.3-1.7c0.2-0.5,0.5-1,0.9-1.4
		C9.3,5.6,9.8,5.2,10.4,5c0.5-0.2,1.1-0.3,1.8-0.3c0.8,0,1.4,0.1,2,0.4c0.5,0.2,1,0.6,1.3,1c0.3,0.4,0.6,0.8,0.8,1.3
		C16.4,7.8,16.4,8.3,16.4,8.8"/>
	<path class="st0" d="M18.5,13.8c0-0.1-0.1-0.2-0.1-0.3c0-0.1,0-0.2,0-0.4s0.1-0.2,0.2-0.3c0.1-0.1,0.2-0.2,0.3-0.2
		c0.2-0.1,0.4-0.1,0.5-0.1c0.1,0,0.3,0,0.4,0.1s0.2,0.1,0.3,0.2c0.1,0.1,0.2,0.1,0.3,0.2c0.4,0.3,1,0.4,1.8,0.4c0.4,0,0.8-0.1,1-0.3
		c0.3-0.2,0.4-0.4,0.4-0.8c0-0.3-0.1-0.6-0.4-0.7c-0.2-0.2-0.6-0.3-0.9-0.5c-0.4-0.1-0.8-0.3-1.2-0.4c-0.4-0.1-0.8-0.3-1.2-0.5
		c-0.4-0.2-0.7-0.5-0.9-0.9c-0.2-0.4-0.4-0.8-0.4-1.4c0-0.9,0.3-1.7,1-2.3c0.7-0.6,1.6-0.9,2.7-0.9c0.5,0,1,0,1.3,0.1
		c0.4,0.1,0.7,0.2,0.9,0.3c0.2,0.1,0.4,0.3,0.6,0.4c0.1,0.1,0.2,0.3,0.3,0.4c0.1,0.2,0.1,0.4,0.1,0.7c0,0.2-0.1,0.4-0.3,0.6
		c-0.3,0.2-0.5,0.2-0.8,0.2c-0.2-0.1-0.4-0.1-0.6-0.3c-0.1-0.1-0.3-0.1-0.5-0.2c-0.2-0.1-0.6-0.2-1.1-0.2c-0.4,0-0.8,0.1-1,0.3
		s-0.3,0.5-0.3,0.8c0,0.3,0.1,0.5,0.4,0.6c0.2,0.1,0.5,0.3,0.9,0.4c0.4,0.1,0.7,0.2,1.2,0.4c0.4,0.1,0.8,0.3,1.2,0.5
		c0.4,0.2,0.7,0.6,0.9,0.9c0.2,0.4,0.4,0.9,0.4,1.5c0,0.9-0.3,1.7-1,2.3c-0.7,0.6-1.6,0.8-2.7,0.8c-0.4,0-0.8,0-1.2-0.1
		c-0.4-0.1-0.8-0.2-1.1-0.3c-0.3-0.1-0.6-0.3-0.9-0.5C18.8,14.2,18.6,14,18.5,13.8"/>
	<path class="st0" d="M32.5,6.6c-0.6,0-1.1,0.2-1.5,0.6c-0.4,0.4-0.6,0.9-0.6,1.5h4.1V8.4c0-0.6-0.2-1-0.6-1.3
		C33.6,6.8,33.1,6.6,32.5,6.6 M36.8,8.8c0,0.6-0.1,1.1-0.4,1.3c-0.2,0.3-0.7,0.4-1.2,0.4h-4.8V11c0,0.6,0.2,1.2,0.6,1.6
		c0.4,0.4,1,0.6,1.7,0.6c0.4,0,0.7,0,1-0.1c0.3,0,0.5-0.1,0.7-0.2c0.2-0.1,0.4-0.2,0.5-0.3c0.2-0.1,0.3-0.1,0.5-0.1
		c0.3,0,0.5,0.1,0.6,0.2c0.1,0.2,0.2,0.4,0.2,0.6c0,0.2-0.1,0.4-0.3,0.7c-0.2,0.2-0.4,0.4-0.8,0.6c-0.3,0.2-0.7,0.3-1.1,0.4
		c-0.4,0.1-0.9,0.2-1.4,0.2c-0.7,0-1.3-0.1-1.9-0.3c-0.6-0.2-1.1-0.5-1.5-0.9c-0.4-0.4-0.7-0.8-1-1.3c-0.2-0.5-0.3-1-0.3-1.6V9
		c0-0.6,0.1-1.2,0.3-1.7c0.2-0.5,0.5-1,0.9-1.4s0.9-0.7,1.4-0.9c0.5-0.2,1.1-0.3,1.8-0.3c0.8,0,1.4,0.1,2,0.4c0.5,0.2,1,0.6,1.3,1
		c0.3,0.4,0.6,0.8,0.8,1.3C36.7,7.8,36.8,8.3,36.8,8.8"/>
	<path class="st0" d="M45.7,8.7c0-0.7-0.2-1.2-0.5-1.4c-0.3-0.3-0.8-0.4-1.4-0.4c-0.4,0-0.7,0.1-1,0.2c-0.3,0.1-0.5,0.3-0.7,0.5
		c-0.2,0.2-0.4,0.5-0.5,0.8c-0.1,0.3-0.2,0.6-0.2,0.9v1.9c0,0.5,0.2,0.9,0.5,1.3c0.4,0.4,0.8,0.5,1.4,0.5c0.3,0,0.6-0.1,0.9-0.2
		c0.3-0.1,0.5-0.2,0.7-0.4c0.2-0.2,0.4-0.4,0.5-0.7c0.1-0.3,0.2-0.6,0.2-1V8.7z M46.8,15.3c-0.3,0-0.6-0.1-0.8-0.3
		c-0.2-0.2-0.3-0.4-0.3-0.7V14L45.5,14c-0.1,0.2-0.3,0.3-0.4,0.5c-0.1,0.1-0.3,0.3-0.5,0.4c-0.2,0.1-0.4,0.2-0.7,0.3
		c-0.3,0.1-0.6,0.1-1,0.1c-0.6,0-1.2-0.1-1.7-0.4c-0.5-0.2-0.9-0.5-1.2-0.9c-0.3-0.4-0.5-0.8-0.7-1.3c-0.2-0.5-0.2-1-0.2-1.5V9.4
		c0-0.6,0.1-1.1,0.3-1.7c0.2-0.6,0.5-1.1,0.9-1.5c0.4-0.4,0.9-0.8,1.5-1.1c0.6-0.3,1.3-0.4,2.1-0.4c0.7,0,1.4,0.1,1.9,0.3
		c0.5,0.2,1,0.5,1.3,0.8s0.6,0.8,0.8,1.3C48,7.6,48,8.1,48,8.7v5.7c0,0.2-0.1,0.5-0.3,0.7C47.5,15.2,47.2,15.3,46.8,15.3"/>
	<path class="st0" d="M55.3,15.2c-0.7,0-1.4-0.1-2-0.3c-0.6-0.2-1-0.5-1.4-0.9c-0.4-0.4-0.7-0.9-0.9-1.4c-0.2-0.5-0.3-1.1-0.3-1.8
		V5.6c0-0.2,0.1-0.5,0.3-0.7c0.2-0.2,0.5-0.3,0.9-0.3c0.4,0,0.6,0.1,0.8,0.3c0.2,0.2,0.3,0.4,0.3,0.7v5.2c0,0.7,0.2,1.3,0.6,1.6
		c0.4,0.4,0.9,0.5,1.5,0.5c0.6,0,1.1-0.2,1.5-0.5c0.4-0.4,0.6-0.9,0.6-1.6V5.6c0-0.2,0.1-0.5,0.3-0.7c0.2-0.2,0.5-0.3,0.9-0.3
		c0.4,0,0.6,0.1,0.9,0.3c0.2,0.2,0.3,0.4,0.3,0.7v5.1c0,0.6-0.1,1.2-0.3,1.8c-0.2,0.5-0.5,1-0.9,1.4c-0.4,0.4-0.8,0.7-1.4,0.9
		C56.7,15.1,56,15.2,55.3,15.2"/>
	<path class="st0" d="M78.1,4.7c0.8,0,1.4,0.1,1.9,0.3C80.6,5.2,81,5.6,81.3,6c0.3,0.4,0.5,0.9,0.6,1.4s0.2,1.1,0.2,1.8v5.1
		c0,0.2-0.1,0.5-0.3,0.7c-0.2,0.2-0.5,0.3-0.9,0.3c-0.3,0-0.6-0.1-0.8-0.3c-0.2-0.2-0.3-0.4-0.3-0.7V9.1c0-0.7-0.1-1.3-0.4-1.6
		c-0.3-0.4-0.7-0.5-1.4-0.5c-1.2,0-1.8,0.7-1.8,2.2v5.3l0,0.2l0,0.1c0,0,0,0,0,0.1c0,0,0,0-0.1,0.1c-0.1,0.1-0.2,0.2-0.4,0.3
		c-0.2,0.1-0.4,0.1-0.6,0.2h-0.1c-0.3,0-0.6-0.1-0.8-0.2c-0.2-0.1-0.3-0.3-0.4-0.5l0,0V9.1c0-1.4-0.6-2.2-1.8-2.2
		c-0.7,0-1.2,0.2-1.4,0.5c-0.3,0.4-0.4,0.9-0.4,1.6v5.2c0,0.2-0.1,0.5-0.3,0.7c-0.2,0.2-0.5,0.3-0.8,0.3c-0.4,0-0.7-0.1-0.9-0.3
		c-0.2-0.2-0.3-0.4-0.3-0.7V9.2c0-0.6,0.1-1.2,0.2-1.8c0.1-0.5,0.3-1,0.6-1.4c0.3-0.4,0.7-0.7,1.2-0.9c0.5-0.2,1.2-0.3,1.9-0.3
		c0.8,0,1.4,0.1,1.9,0.4c0.5,0.3,0.9,0.7,1.2,1.1c0.3-0.5,0.7-0.9,1.2-1.1C76.7,4.8,77.3,4.7,78.1,4.7"/>
	<path class="st0" d="M85,2.2c0-0.2,0.1-0.5,0.3-0.7c0.2-0.2,0.5-0.3,0.9-0.3c0.4,0,0.6,0.1,0.8,0.3c0.2,0.2,0.3,0.4,0.3,0.7v12.1
		c0,0.2-0.1,0.5-0.3,0.7c-0.2,0.2-0.5,0.3-0.8,0.3c-0.4,0-0.7-0.1-0.9-0.3c-0.2-0.2-0.3-0.4-0.3-0.7V2.2z"/>
	<path class="st0" d="M108,4.7c0.8,0,1.4,0.1,1.9,0.3c0.5,0.2,0.9,0.5,1.2,0.9c0.3,0.4,0.5,0.9,0.6,1.4c0.1,0.5,0.2,1.1,0.2,1.8v5.1
		c0,0.2-0.1,0.5-0.3,0.7c-0.2,0.2-0.5,0.3-0.9,0.3c-0.3,0-0.6-0.1-0.8-0.3c-0.2-0.2-0.3-0.4-0.3-0.7V9.1c0-0.7-0.1-1.3-0.4-1.6
		s-0.7-0.5-1.4-0.5c-1.2,0-1.8,0.7-1.8,2.2v5.3l0,0.2l0,0.1c0,0,0,0,0,0.1c0,0,0,0-0.1,0.1c-0.1,0.1-0.2,0.2-0.4,0.3
		c-0.2,0.1-0.4,0.1-0.6,0.2h-0.1c-0.3,0-0.6-0.1-0.8-0.2c-0.2-0.1-0.3-0.3-0.4-0.5l0,0V9.1c0-1.4-0.6-2.2-1.8-2.2
		c-0.7,0-1.2,0.2-1.4,0.5c-0.3,0.4-0.4,0.9-0.4,1.6v5.2c0,0.2-0.1,0.5-0.3,0.7c-0.2,0.2-0.5,0.3-0.8,0.3c-0.4,0-0.7-0.1-0.9-0.3
		c-0.2-0.2-0.3-0.4-0.3-0.7V9.2c0-0.6,0.1-1.2,0.2-1.8s0.3-1,0.6-1.4c0.3-0.4,0.7-0.7,1.2-0.9c0.5-0.2,1.2-0.3,1.9-0.3
		c0.8,0,1.4,0.1,1.9,0.4c0.5,0.3,0.9,0.7,1.2,1.1c0.3-0.5,0.7-0.9,1.2-1.1C106.5,4.8,107.2,4.7,108,4.7"/>
	<path class="st0" d="M116.8,10.7c0,0.7,0.2,1.3,0.6,1.7c0.4,0.4,0.9,0.6,1.6,0.6c0.7,0,1.2-0.2,1.6-0.6c0.4-0.4,0.6-1,0.6-1.7V9.3
		c0-0.8-0.2-1.4-0.6-1.8c-0.4-0.4-0.9-0.6-1.6-0.6c-0.7,0-1.2,0.2-1.6,0.6c-0.4,0.4-0.6,1-0.6,1.8V10.7z M114.4,9.3
		c0-0.6,0.1-1.2,0.3-1.8c0.2-0.6,0.5-1.1,0.8-1.5c0.4-0.4,0.8-0.8,1.4-1c0.6-0.2,1.3-0.4,2.1-0.4c0.8,0,1.5,0.1,2.1,0.4
		c0.6,0.2,1.1,0.6,1.4,1c0.4,0.4,0.7,0.9,0.8,1.5c0.2,0.6,0.3,1.2,0.3,1.8v1.4c0,0.6-0.1,1.2-0.3,1.7c-0.2,0.5-0.5,1-0.8,1.4
		c-0.4,0.4-0.9,0.7-1.4,1s-1.3,0.4-2.1,0.4c-0.8,0-1.5-0.1-2.1-0.4c-0.6-0.2-1.1-0.6-1.4-1c-0.4-0.4-0.7-0.9-0.8-1.4
		c-0.2-0.5-0.3-1.1-0.3-1.7V9.3z"/>
	<path class="st0" d="M130.5,4.7c0.7,0,1.4,0.1,2,0.3c0.6,0.2,1,0.5,1.4,0.9c0.4,0.4,0.7,0.8,0.9,1.3c0.2,0.5,0.3,1.1,0.3,1.7v5.3
		c0,0.2-0.1,0.5-0.3,0.7c-0.2,0.2-0.5,0.3-0.9,0.3c-0.4,0-0.6-0.1-0.9-0.3c-0.2-0.2-0.3-0.4-0.3-0.7V9.1c0-0.7-0.2-1.3-0.6-1.6
		c-0.4-0.4-0.9-0.5-1.5-0.5c-0.6,0-1.1,0.2-1.5,0.5c-0.4,0.4-0.6,0.9-0.6,1.6v5.2c0,0.2-0.1,0.5-0.3,0.7c-0.2,0.2-0.5,0.3-0.8,0.3
		c-0.4,0-0.7-0.1-0.9-0.3c-0.2-0.2-0.3-0.4-0.3-0.7V9.1c0-0.6,0.1-1.2,0.3-1.8c0.2-0.5,0.5-1,0.9-1.4c0.4-0.4,0.8-0.7,1.4-0.9
		C129.1,4.8,129.8,4.7,130.5,4.7"/>
	<path class="st0" d="M142.2,13c0.6,0,1.1-0.2,1.5-0.5c0.4-0.3,0.6-0.9,0.6-1.6V8.9c0-0.7-0.2-1.2-0.7-1.6c-0.4-0.3-0.9-0.5-1.5-0.5
		c-0.7,0-1.3,0.2-1.7,0.6c-0.4,0.4-0.6,1-0.6,1.7v1.5c0,0.7,0.2,1.3,0.6,1.7C140.9,12.8,141.5,13,142.2,13 M141.6,4.7
		c0.6,0,1,0.1,1.5,0.3c0.4,0.2,0.8,0.5,1,0.8l0.1,0V2.1c0-0.2,0.1-0.5,0.3-0.7c0.2-0.2,0.5-0.3,0.8-0.3c0.4,0,0.7,0.1,0.9,0.3
		c0.2,0.2,0.3,0.4,0.3,0.7v8.7c0,0.6-0.1,1.2-0.3,1.8c-0.2,0.5-0.5,1-0.8,1.4c-0.4,0.4-0.8,0.7-1.4,0.9c-0.6,0.2-1.2,0.3-2,0.3
		c-0.8,0-1.5-0.1-2.1-0.4c-0.6-0.2-1.1-0.6-1.5-1c-0.4-0.4-0.7-0.9-0.9-1.5s-0.3-1.2-0.3-1.8V9.3c0-0.6,0.1-1.2,0.2-1.8
		c0.2-0.6,0.4-1.1,0.8-1.5c0.3-0.4,0.8-0.8,1.3-1C140.3,4.8,140.9,4.7,141.6,4.7"/>
	<path class="st0" d="M153.5,6.6c-0.6,0-1.1,0.2-1.5,0.6c-0.4,0.4-0.6,0.9-0.6,1.5h4.1V8.4c0-0.6-0.2-1-0.6-1.3
		C154.6,6.8,154.1,6.6,153.5,6.6 M157.9,8.8c0,0.6-0.1,1.1-0.4,1.3c-0.2,0.3-0.7,0.4-1.2,0.4h-4.8V11c0,0.6,0.2,1.2,0.6,1.6
		c0.4,0.4,1,0.6,1.7,0.6c0.4,0,0.7,0,1-0.1c0.3,0,0.5-0.1,0.7-0.2c0.2-0.1,0.4-0.2,0.5-0.3c0.2-0.1,0.3-0.1,0.5-0.1
		c0.3,0,0.5,0.1,0.6,0.2c0.1,0.2,0.2,0.4,0.2,0.6c0,0.2-0.1,0.4-0.3,0.7c-0.2,0.2-0.4,0.4-0.8,0.6c-0.3,0.2-0.7,0.3-1.1,0.4
		c-0.4,0.1-0.9,0.2-1.4,0.2c-0.7,0-1.3-0.1-1.9-0.3c-0.6-0.2-1.1-0.5-1.5-0.9c-0.4-0.4-0.7-0.8-1-1.3c-0.2-0.5-0.3-1-0.3-1.6V9
		c0-0.6,0.1-1.2,0.3-1.7c0.2-0.5,0.5-1,0.9-1.4c0.4-0.4,0.9-0.7,1.4-0.9c0.5-0.2,1.1-0.3,1.8-0.3c0.8,0,1.4,0.1,2,0.4
		c0.5,0.2,1,0.6,1.3,1c0.3,0.4,0.6,0.8,0.8,1.3C157.8,7.8,157.9,8.3,157.9,8.8"/>
	<path class="st0" d="M96.1,1.7c-0.3-0.3-0.8-0.4-1.5-0.4c-1.4,0-2.5,0.3-3.2,1c-0.7,0.7-1,1.6-1,2.8v9c0,0.2,0.1,0.4,0.3,0.6
		c0.2,0.2,0.5,0.3,0.8,0.3c0.3,0,0.6-0.1,0.8-0.3c0.2-0.2,0.3-0.4,0.3-0.6V8.3c0,0,0,0,0,0h1.6c0.2,0,0.4-0.1,0.6-0.3
		c0.2-0.2,0.3-0.5,0.3-0.8c0-0.3-0.1-0.6-0.3-0.8C94.8,6.1,94.6,6,94.4,6h-1.6c0,0,0,0,0,0V5.1c0-0.3,0-0.6,0.1-0.9
		C93,4,93.1,3.8,93.2,3.7c0.2-0.1,0.4-0.2,0.6-0.2c0.2,0,0.5-0.1,0.8-0.1c0.2,0,0.4,0,0.6,0c0.2,0,0.4,0,0.6,0
		c0.2,0,0.3-0.1,0.5-0.2c0.1-0.1,0.2-0.3,0.3-0.5C96.6,2.3,96.5,1.9,96.1,1.7"/>
</g>
</svg>
